<svg xmlns="http://www.w3.org/2000/svg" width="256" height="256"><path fill-opacity=".059" d="M0 128.004v128.004l128.25-.254 128.25-.254.254-127.75L257.008 0H0v128.004m.485.496c0 70.4.119 99.053.265 63.672.146-35.38.146-92.98 0-128C.604 29.153.485 58.1.485 128.5" fill="#1976D2" fill-rule="evenodd"/><path fill-opacity=".117" d="M0 85.008c0 45.095.337 81.982.75 81.97.413-.011 2.48-2.437 4.595-5.389 2.115-2.953 5.597-7.079 7.738-9.17l3.893-3.802 4.495 4.692c2.473 2.58 4.845 4.691 5.272 4.691.427 0 1.349-.917 2.049-2.039.7-1.121 1.709-1.77 2.241-1.441.532.329.974.009.982-.711.037-3.165 1.963 2.085 3.101 8.453.778 4.351 1.563 6.459 2.177 5.845.804-.804.583-2.795-.789-7.107-.087-.275-.512-2.187-.943-4.25-.431-2.062-1.184-3.75-1.672-3.75-1.966 0-2.459-.205-4.139-1.726-1.769-1.601-2.428-5.274-.947-5.274.442 0 2.731 1.418 5.088 3.151 3.453 2.539 4.194 3.623 3.82 5.583-.256 1.337.115 4.361.825 6.719 1.264 4.201 1.217 4.391-2.373 9.534-2.015 2.886-5.586 6.633-7.937 8.327l-4.275 3.079-2.919-3.197c-1.606-1.758-2.495-3.196-1.976-3.196.519 0 .944-.708.944-1.573 0-1.818-12.087-13.491-13.234-12.782-1.75 1.081-.555 4.753 2.484 7.634 1.787 1.695 2.575 2.72 1.75 2.278-.825-.442 1.085 1.676 4.245 4.707 3.59 3.445 5.09 5.46 4 5.374-1.456-.115-1.689.568-1.407 4.128.185 2.346 1.403 6.269 2.705 8.718 1.319 2.481 1.952 4.71 1.429 5.033-1.64 1.014-11.183-1.356-20.222-5.021-1.321-.536-1.75-.218-1.75 1.298 0 1.647.629 1.99 3.502 1.909 6.931-.197 7.08 3.47.49 12.106l-4.051 5.309.28 12.417.279 12.417 11.75-11.272c11.968-11.482 15.988-14.534 6.534-4.961-2.869 2.904-4.738 5.281-4.155 5.281.584 0 1.83-.85 2.771-1.889 1.172-1.296 3.765-2.11 8.248-2.59 8.301-.889 18.318-3.663 29.969-8.301l9.161-3.646.711-15.168c.391-8.342.387-19.046-.008-23.787-.63-7.57-.521-8.619.901-8.619 1.39 0 1.63 1.587 1.704 11.25.168 21.961-.263 33.258-1.317 34.528-.848 1.022-.572 1.098 1.35.367 1.329-.505 5.624-1.417 9.544-2.025 5.882-.912 7.748-.846 10.682.379 4.1 1.714 7.219 7.117 6.277 10.873-.385 1.531.052 3.236 1.219 4.757 1 1.304 2.112 3.175 2.471 4.158.359.982 1.929 2.518 3.488 3.413s4.379 4.119 6.267 7.164c1.888 3.046 4.917 7.213 6.73 9.26l3.297 3.722h22.695l2.944-3.673c1.62-2.02 4.866-6.899 7.214-10.841 3.503-5.881 4.306-8.171 4.471-12.75.111-3.07-.162-5.582-.608-5.582-.445 0-.81.398-.81.883 0 .486-.9 1.119-2 1.407-1.1.287-2 .115-2-.384 0-.498.435-.906.967-.906.531 0 3.317-2.088 6.19-4.639 2.872-2.551 7.629-5.703 10.569-7.003 4.989-2.207 5.829-2.29 12.56-1.252 3.968.612 11.383 2.844 16.479 4.961 15.079 6.264 27.637 9.933 33.997 9.934h5.738l9.717 9.5c5.344 5.224 9.892 9.499 10.108 9.499.215 0 .386-6.637.379-14.75-.006-8.113-.191-12.387-.41-9.499-.346 4.556-.771 5.444-3.212 6.707-2.18 1.127-3.653 1.223-6.539.426-2.049-.565-4.353-.787-5.121-.492-1.777.681-8.091-5.758-10.185-10.387-2.124-4.695-2.34-22.569-.318-26.351 1.374-2.57 4.405-3.556 5.498-1.788 1.02 1.65 5.617-.118 8.157-3.137 1.775-2.109 2.198-3.252 1.387-3.753-.789-.488-.406-1.251 1.187-2.367 1.294-.906 2.352-2.164 2.352-2.795 0-.631.626-1.356 1.391-1.611 1.075-.358 1.228.192.676 2.417-.393 1.584-1.124 3.028-1.625 3.208-.501.18.452 1.474 2.116 2.874 1.665 1.401 3.345 2.229 3.734 1.84.39-.389.856-41.058 1.036-90.375l.328-89.667-128.578.258L0 3.015v81.993M.477 85c0 45.375.123 63.938.273 41.25.15-22.687.15-59.812 0-82.5C.6 21.063.477 39.625.477 85M84.269 6.693c.973.254 2.323.237 3-.037.677-.274-.119-.481-1.769-.461-1.65.02-2.204.244-1.231.498M111 65.566c-3.575.774-8.75 2.366-11.5 3.537-5.056 2.155-18.301 12.215-19.214 14.594-.273.71-.827 1.087-1.232.836-1.472-.909-6.766 6.13-9.752 12.967-4.363 9.989-4.557 10.596-4.686 14.693-.076 2.413-.882 4.406-2.324 5.75-2.836 2.642-4.165 2.679-1.786.051.998-1.104 1.547-2.275 1.218-2.603-.328-.328-.186-1.675.315-2.994.707-1.858.58-2.397-.564-2.397-.811 0-1.544.563-1.627 1.25-.289 2.367-.54 3.259-1.753 6.225-.673 1.646-1.003 5.134-.738 7.804.386 3.9.226 4.62-.831 3.743-1.011-.839-1.56-.363-2.417 2.095-.61 1.75-1.109 4.262-1.109 5.582 0 1.32-.687 3.728-1.526 5.351-.839 1.622-1.076 2.95-.528 2.95.549 0 1.711-2.451 2.582-5.447 1.242-4.272 1.93-5.314 3.192-4.83 1.063.408 1.365.224.892-.542-.458-.741-.19-.956.746-.597.909.349 1.712-.228 2.124-1.526.364-1.148 1.08-1.829 1.59-1.514.51.316.928-.09.928-.902 0-.811.563-1.665 1.25-1.896.973-.327.943-.792-.133-2.096-1.069-1.296-1.697-1.414-2.773-.521-1.109.921-1.263.823-.76-.488.735-1.914.954-1.959 3.344-.68 2.418 1.295 7.392-3.527 5.1-4.944-.83-.513-2.161-.481-3.202.076-1.402.75-1.657.629-1.197-.57.322-.838 1.212-1.523 1.978-1.523S68 116.121 68 115.047c0-2.931 2.094-6.946 3.374-6.47.62.23 1.88-1.38 2.802-3.579 1.26-3.006 2.252-4.009 4-4.041 1.717-.032 3.336-1.599 6.197-6 3.736-5.747 5.795-8.009 3.662-4.023-1.415 2.644-1.314 3.073.715 3.024.982-.024 3.725-2.825 6.25-6.384 4.395-6.194 6.325-7.918 4-3.574-.639 1.194-.939 2.394-.667 2.667.938.937 4.565-1.686 6.231-4.506.918-1.554 2.564-3.384 3.657-4.067 1.094-.683 1.719-.806 1.391-.274-.329.531.541 1.252 1.932 1.602 1.392.349 2.461 1.185 2.375 1.856-.086.672-.058 2.347.062 3.722l.218 2.5.753-2.5c.722-2.402.78-2.363 1.459 1 .389 1.925.542 6.425.341 10l-.367 6.5-.192-7.156c-.185-6.875-.281-7.136-2.443-6.617-1.237.297-3.612 1.822-5.277 3.387-1.666 1.566-4.57 3.155-6.455 3.532-1.884.377-4.458 1.912-5.719 3.411-1.261 1.498-3.353 2.991-4.648 3.316-2.448.614-9.651 8.998-9.651 11.232 0 .702-.449 1.554-.997 1.893-.648.401-.638-.327.028-2.08 1.306-3.435.521-4.332-1.097-1.254-.675 1.285-2.511 3.814-4.081 5.621-1.569 1.806-2.853 3.796-2.853 4.421 0 .625-.728 1.941-1.619 2.925-1.049 1.16-1.399 2.66-.996 4.266.49 1.954 1.203 2.439 3.367 2.291 3.822-.262 4.332 3.372.798 5.687-3.074 2.014-3.168 3.493-.55 8.625 2.386 4.676 2.513 5.67.513 4.011-1.608-1.335-4.513-.718-4.513.958 0 .567 1.093 1.031 2.429 1.031 1.335 0 3.072.644 3.859 1.431.788.787 3.182 1.575 5.322 1.75 3.393.278 3.89.637 3.89 2.809 0 1.983-.609 2.596-2.988 3.008-3.686.638-4.31 3.047-1.748 6.746 3.206 4.63 3.597 5.918.837 2.756-1.441-1.65-2.896-4.238-3.235-5.75-.641-2.862-1.163-3.219-2.899-1.985-.868.617-1.121 4.117-.592 8.2.223 1.725 6.293 8.035 7.729 8.035.776 0 1.404-.999 1.413-2.25.014-1.783.584-1.306 2.75 2.301 7.245 12.064 12.071 15.762 28.792 22.063 7.41 2.792 11.808 3.926 13.91 3.585 3.477-.564 23.499-9.309 25.031-10.933.69-.731.565-.811-.405-.258-.92.525-1.167.418-.717-.31.377-.611 1.268-.887 1.98-.614 1.591.611 9.824-8.025 12.083-12.677 1.103-2.27 1.186-2.823.247-1.657-2.257 2.804-2.88 2.022-1.113-1.396 1.291-2.495 1.832-2.857 2.62-1.75.782 1.099.875 1.027.437-.336-.305-.953.127-3.653.96-6 1.973-5.555 5.474-23.147 5.625-28.268.233-7.91-2.129-23.783-4.777-32.097-2.922-9.179-4.17-10.622-2.416-2.794 1.902 8.487 3.11 20.639 2.443 24.584-.489 2.898-1.111 3.807-2.606 3.807-2.256 0-4.244-4.073-5.367-11-1.197-7.382-1.401-8.243-2.102-8.885-.369-.338-.398 1.185-.064 3.385.333 2.2.915 6.651 1.293 9.89l.687 5.89-3.904-.794c-2.147-.437-4.667-.822-5.599-.855-2.378-.084-5.301-7.107-5.303-12.745-.001-2.577-.268-4.524-.592-4.326-1.129.69-.384-9.284.8-10.711 1.073-1.292.914-13.03-.2-14.833-.849-1.374 1.357-2.706 8.229-4.966 6.028-1.982 7.672-2.184 9.825-1.203 1.422.648 2.96.947 3.416.665 1.184-.731 7.177 8.637 6.558 10.251-.284.737-.103 1.086.401.774 1.102-.68 2.554 3.215 2.171 5.822-.15 1.023.101 1.629.559 1.348.457-.282.932.873 1.054 2.565.123 1.692.674 3.355 1.225 3.696.55.34 1.473 3.947 2.05 8.015 1.313 9.262 2.21 10.502 1.4 1.936-.973-10.287-3.225-17.826-8.041-26.919-3.221-6.082-3.781-7.646-1.966-5.5 1.396 1.65 2.553 3.364 2.573 3.809.02.445.486.531 1.036.191.887-.548 1.182.142.915 2.138-.047.351.367.918.919 1.26.553.341 1.154 1.281 1.336 2.088.181.806.918 2.098 1.638 2.869.719.772 1.061 2.043.761 2.826-.341.888-.12 1.159.588.722.799-.494.935.156.458 2.198-.524 2.247-.428 2.562.425 1.399.867-1.18 1.018-.817.712 1.697-.23 1.888.005 2.953.574 2.602.568-.351.758.48.463 2.022-.275 1.44-.148 2.401.282 2.135.43-.266 1.065 2.111 1.41 5.28 1.009 9.247 1.241 10.07 1.343 4.764.252-13.002-7.129-33.415-13.997-38.711-1.83-1.411-4.677-3.77-6.327-5.243-4.963-4.429-11.251-8.546-16.804-11.002-10.06-4.449-29.604-5.812-42.696-2.978M105.5 85c-.34.55-.141 1 .441 1S107 85.55 107 85s-.198-1-.441-1-.719.45-1.059 1m23.371 3.467c-.212 1.082.077 7.241.643 13.687 1.132 12.905 1.003 14.52-1.021 12.84-1.025-.851-1.466-.366-2.011 2.208-.384 1.814-1.595 4.275-2.691 5.47-1.615 1.76-1.862 2.947-1.304 6.25.626 3.706 1.439 4.589 3.84 4.171.455-.08 2.342.274 4.193.785 3.029.836 3.398.713 3.681-1.224.174-1.185-.031-5.079-.454-8.654-1.096-9.246-1.113-10.273-.212-12.414.533-1.269.446-1.692-.259-1.257-.632.391-1.055-.251-1.042-1.586.039-4.18-1.525-18.231-2.253-20.243-.715-1.973-.73-1.973-1.11-.033m-31.9.18c-1.513.41-4.436 4.221-3.758 4.899.861.861 8.838-1.945 10.384-3.653 1.65-1.823 1.588-1.889-1.692-1.777-1.873.064-4.093.303-4.934.531m42.529 2.998c.346 2.12 1.051 6.015 1.565 8.654.514 2.64.894 6.015.845 7.5-.05 1.486-.673-.509-1.385-4.432-.712-3.924-1.783-7.974-2.38-9-1.236-2.129-1.353-1.122-1.228 10.633.063 5.843-1.566 16.237-1.815 11.583-.056-1.054-.331-1.688-.61-1.408-.924.923 2.133 14.593 3.584 16.029 3.075 3.041 4.781 2.875 5.213-.508.364-2.853.488-2.962 1.158-1.015.412 1.199 1.268 2.38 1.902 2.623 1.532.588 1.233-5.644-.781-16.258-1.832-9.66-1.926-11.385-.571-10.548.596.369.544-.513-.13-2.191-.62-1.544-1.631-5.47-2.247-8.725-1.274-6.734-4.189-9.477-3.12-2.937m-67.409 8.446c-1.602 5.345-.815 6.132.909.909.728-2.205 1.098-4.236.822-4.511-.276-.276-1.055 1.345-1.731 3.602m11.944-2.157c-1.503 2.808-1.367 2.935 2.215 2.076 7.692-1.845 9.196-4.01 2.785-4.01-2.896 0-4.244.521-5 1.934M175 97c0 .55.477 1 1.059 1s.781-.45.441-1-.816-1-1.059-1-.441.45-.441 1m1.5 3c.34.55.816 1 1.059 1s.441-.45.441-1-.477-1-1.059-1-.781.45-.441 1m-100.893 4.582c-1.106 2.881-.64 3.194 2.925 1.968 5.78-1.987 6.562-3.55 1.775-3.55-2.81 0-4.283.496-4.7 1.582M160 109.333c0 2.017.439 3.667.975 3.667.56 0 .712-1.383.356-3.25-.867-4.557-1.331-4.702-1.331-.417m-42.842.667c0 1.375.227 1.938.504 1.25.278-.687.278-1.812 0-2.5-.277-.687-.504-.125-.504 1.25m29 0c0 1.375.227 1.938.504 1.25.278-.687.278-1.812 0-2.5-.277-.687-.504-.125-.504 1.25M72 110.797c-1.895.635-2.965 2.219-2.985 4.419-.014 1.555.315 1.522 3.485-.349 1.925-1.135 3.5-2.422 3.5-2.859 0-1.128-2.231-1.804-4-1.211m46.079 6.786c.048 1.165.285 1.402.604.605.289-.722.253-1.585-.079-1.917-.332-.332-.568.258-.525 1.312m1.079 4.417c0 1.375.227 1.938.504 1.25.278-.687.278-1.812 0-2.5-.277-.687-.504-.125-.504 1.25m.983 5.5c0 1.1.386 2.9.859 4l.859 2v-2c0-1.1-.386-2.9-.859-4l-.859-2v2m67.017 1.5c0 1.375.227 1.938.504 1.25.278-.687.278-1.812 0-2.5-.277-.687-.504-.125-.504 1.25m3.493 1.468c-.31.807-.133 1.734.393 2.059.526.325.956-.336.956-1.468 0-2.415-.556-2.658-1.349-.591m-126.697 3.618c-.614 1.147-.908 2.293-.654 2.547.602.603 3.7-2.499 3.7-3.704 0-1.69-1.911-.964-3.046 1.157m3.718 1.433c-3.205 1.933-9.73 6.095-14.5 9.248-4.77 3.153-9.797 5.733-11.172 5.733-2.103 0-2.47.435-2.314 2.736.103 1.505.971 5.38 1.93 8.61l1.744 5.874 3.07-1.744c1.689-.96 5.545-2.002 8.57-2.315 3.025-.314 6.4-.758 7.5-.987 1.1-.228 6.388-1.231 11.75-2.228 6.479-1.205 9.75-2.255 9.75-3.129 0-1.661-.319-1.655-18.182.334-14.241 1.586-14.906 1.579-16.847-.177-1.111-1.005-1.896-2.156-1.745-2.557.251-.668 9.43-7.514 23.22-17.317 3.017-2.145 5.25-4.283 4.961-4.75-.818-1.323-1.51-1.084-7.735 2.669m116.902-2.639c-.299.484 5.637 6.049 13.191 12.367 9.966 8.336 14.078 11.216 14.985 10.498 2.108-1.669 1.438.774-.756 2.76-2.147 1.943-2.776 1.906-27.336-1.601-5.665-.809-8.145-.817-8.933-.029-.601.601-.823 1.36-.496 1.688.328.328 7.273 2.089 15.434 3.914 8.16 1.825 16.075 3.638 17.587 4.029 1.978.511 2.75.337 2.75-.62 0-.732.784-.218 1.742 1.141.958 1.36 1.656 2.744 1.55 3.075-.106.331 1.334 2.082 3.201 3.891 2.849 2.762 3.304 2.948 2.837 1.159-.307-1.171-.896-1.92-1.31-1.664-.414.256-1.558-.425-2.541-1.512-1.903-2.102-.708-2.805 1.321-.776.933.933 1.2.933 1.2 0 0-1.923 1.997-1.382 2.032.55.062 3.455 9.327 11.25 13.371 11.25 2.682 0 6.597-3.065 6.597-5.165 0-2.495 2.756-7.835 4.043-7.835 1.265 0 7.957-6.851 7.957-8.146 0-.535-2.316-3.423-5.148-6.417l-5.147-5.443-4.254 4.503c-2.339 2.477-4.972 4.503-5.852 4.503-2.302 0-2.182 6.837.151 8.608.963.731 1.436 1.343 1.052 1.36-1.732.079-5.665-4.819-6.025-7.502-.285-2.123-.634-1.155-1.23 3.405-.634 4.85-1.061 5.962-1.789 4.66-.527-.94-.683-2.907-.347-4.37.336-1.464.836-3.654 1.111-4.868 1.546-6.806 3.078-9.807 5.156-10.103 1.197-.171 2.738-.986 3.424-1.813 1.073-1.293.873-1.409-1.427-.831-1.695.425-2.675.265-2.675-.438 0-.609-.697-1.108-1.55-1.108-2.585 0-7.45 2.955-7.45 4.526 0 2.227-4.316 1.8-7.556-.748C207.489 145.093 187.54 132 186.358 132c-.682 0-1.485.396-1.784.88m-78.568 1.964c.004.361 1.36 1.426 3.015 2.368 2.889 1.644 2.97 1.639 2.026-.125-.945-1.766-5.054-3.594-5.041-2.243M90.5 137.02c-1.295.569-.055.681 3.52.319 3.035-.308 7.23-.088 9.322.49 3.269.902 3.635.848 2.608-.39-1.345-1.62-12.056-1.911-15.45-.419m53.113.545c-.475 1.239-.131 1.422 1.643.879 4.533-1.386 5.399-2.382 2.101-2.414-1.951-.018-3.371.564-3.744 1.535m-68.823 2.754c-.244 1.275-.103 3.188.313 4.25.535 1.366.777.688.827-2.319.077-4.664-.448-5.553-1.14-1.931M185 142.358c0 2.488.481 4.821 1.068 5.184.587.363.938 2.165.78 4.005-.159 1.84.054 3.689.474 4.108.419.419.631-3.233.47-8.116-.197-5.995-.698-9.012-1.542-9.292-.877-.29-1.25.937-1.25 4.111m-161.31-.124c-2.062 1.654-4.187 3.825-4.722 4.826-1.845 3.447.81 2.943 5.675-1.077 2.668-2.204 5.452-3.777 6.187-3.495.735.282 1.164-.006.952-.642-.928-2.783-4.344-2.619-8.092.388m62.063-.806c-2.061 1.139-3.733 2.297-3.714 2.572.018.275 1.14 1.85 2.492 3.5 2.241 2.734 2.46 2.811 2.464.867.003-1.418.76-2.277 2.255-2.561 2.101-.399 2.25-.081 2.25 4.811 0 7.342 5.366 14.532 7.001 9.381.528-1.663 1.342-2.047 3.834-1.805 1.88.182 3.064.814 2.915 1.557-.403 2.017 1.506 1.436 3.193-.973.882-1.258 1.557-4.294 1.557-7 0-3.446.393-4.777 1.412-4.777 2.413 0 1.129-2.887-2.463-5.537-3.078-2.271-4.259-2.511-11.441-2.32-5.933.157-8.979.749-11.755 2.285m65.747-1.752c-4.674 1.211-2.824 1.826 5.561 1.848 4.923.014 8.108-.287 7.077-.669-2.86-1.058-10.393-1.76-12.638-1.179m28.124 2.863c-.343.893-.595 2.15-.561 2.793.035.642.495.09 1.022-1.227.527-1.318.779-2.574.56-2.793-.219-.219-.679.333-1.021 1.227m3.455 1.044c.048 1.165.285 1.402.604.605.289-.722.253-1.585-.079-1.917-.332-.332-.568.258-.525 1.312m48.107-.528c-2.99 1.199-1.9 2.945 1.838 2.945 1.882 0 3.283.704 3.976 2 1.197 2.237 4 2.718 4 .687 0-1.516-5.148-6.718-6.555-6.624-.52.035-1.986.481-3.259.992M33.07 144.153c-2.16.814-2.263 1.082-.93 2.415 1.315 1.316 1.842 1.323 4.283.056 2.557-1.326 2.632-1.522.93-2.416-1.15-.603-2.774-.624-4.283-.055m31.339 1.224c-.949 2.474.05 10.953 1.341 11.378.915.301 1.25-1.352 1.25-6.172 0-6.109-1.267-8.656-2.591-5.206M190.3 151c0 3.025.187 4.262.416 2.75.229-1.512.229-3.988 0-5.5s-.416-.275-.416 2.75M25 148.5c-.685.825-.91 1.5-.5 1.5.41 0 .169.694-.535 1.542-.974 1.174-1.002 1.821-.115 2.708 1.725 1.725 4.691-1.481 3.628-3.922-.438-1.006-.724-2.166-.637-2.578.25-1.182-.487-.882-1.841.75m68 .917c0 1.421.188 2.583.418 2.583.23 0 1.101.262 1.936.582 1.228.471 1.376.055.777-2.185-.98-3.664-3.131-4.338-3.131-.98m87.278-1.167c-2.518 3.255-2.281 3.71 1.049 2.014 1.903-.97 3.257-2.102 3.008-2.514-.704-1.165-2.986-.884-4.057.5M29 148.755c0 .55.675 1.56 1.5 2.245.837.694 1.5.803 1.5.245 0-.55-.675-1.56-1.5-2.245-.837-.694-1.5-.803-1.5-.245m71.5.245c-.399.646-.276 1.624.274 2.174.667.667 1.242.609 1.726-.174.399-.646.276-1.624-.274-2.174-.667-.667-1.242-.609-1.726.174m45.897.825c-1.157.967-2.635 2.752-3.285 3.966-1.406 2.627-.711 2.768 5.087 1.031 3.238-.97 5.51-.857 12.891.642 4.928 1 9.287 1.49 9.685 1.088 1.104-1.114-4.724-5.343-9.703-7.041-5.896-2.012-12.051-1.88-14.675.314m76.833 1.917c-1.428 1.647-1.919 2.969-1.323 3.565.596.596.593 1.878-.008 3.459-.525 1.381-.748 2.718-.495 2.971.253.253 1.158-1.892 2.012-4.767.854-2.875 2.065-5.844 2.691-6.599 2.123-2.559-.593-1.265-2.877 1.371m12.122.251c-2.82 1.138-3.695 2.661-1.919 3.343 1.349.517 2.359-.268 3.97-3.086.815-1.424.836-1.421-2.051-.257m-54.685.674c-.932.932-.832 2.333.166 2.333.459 0 .834-.675.834-1.5 0-1.699-.073-1.76-1-.833M32.31 161.5c.005 3.3.192 4.529.415 2.732.222-1.797.218-4.497-.01-6-.229-1.503-.411-.032-.405 3.268m144.851 2.351c-.66 1.457-1.95 3.999-2.865 5.649-1.542 2.781-2.659 7.5-1.775 7.5 3.958 0 9.61-7.863 8.779-12.213-.7-3.661-2.698-4.113-4.139-.936m43.034 1.649c.02 1.65.244 2.204.498 1.231.254-.973.237-2.323-.037-3-.274-.677-.481.119-.461 1.769m-36.527 2.07c-.936 1.963-1.238 3.282-.67 2.931.685-.423.956 2.323.807 8.181-.123 4.85.383 12.643 1.124 17.318.742 4.675 1.383 9.287 1.424 10.25.042.963.722 1.75 1.511 1.75 1.19 0 1.324-1.565.786-9.154-.358-5.034-.65-14.934-.65-22 0-9.948-.297-12.846-1.315-12.846-.723 0-2.081 1.606-3.017 3.57m-143.492 3.68c-.63 1.238-1.883 3.375-2.784 4.75-1.184 1.807-.773 1.594 1.485-.766 1.717-1.796 3.123-3.933 3.123-4.75 0-2.062-.489-1.857-1.824.766m3.491 2.417c-.367.366-.628 1.829-.581 3.25.084 2.536.102 2.53.967-.367.909-3.043.775-4.044-.386-2.883M5.75 175.162c-1.512.553-2.75 1.394-2.75 1.869 0 .476 1.35.394 3-.181s3-1.452 3-1.948-.113-.866-.25-.823c-.137.043-1.487.531-3 1.083M2 180.894c0 1.127 9.711 4.317 11.701 3.844 2.061-.491 1.919-.557-6.451-3.013-2.888-.848-5.25-1.221-5.25-.831m39.248 1.462c-.687 1.506-1.227 4.179-1.2 5.941.047 3.14.077 3.118 1.56-1.114 1.824-5.206 1.541-9-.36-4.827m79.537 2.378c-3.755 1.577-3.374 3.953 1.12 6.981 4.171 2.811 7.591 2.89 11.879.276 4.073-2.484 4.982-4.653 2.846-6.789-2.01-2.01-11.505-2.291-15.845-.468m38.364 2.87c-.743.84-1.153 1.726-.91 1.968.242.242 1.257-.462 2.255-1.566.999-1.103 1.409-1.989.911-1.968-.498.021-1.513.726-2.256 1.566M27.086 187.5c.104 1.894 1.77 5.084 1.828 3.5.031-.825-.381-2.175-.914-3-.533-.825-.945-1.05-.914-.5m10.841 7.111c-.621 1.589-1.37 4.689-1.664 6.889-.294 2.2-1.002 4.9-1.574 6-1.492 2.872-2.577 9.5-1.555 9.5.476 0 .874-.338.883-.75.01-.412 1.355-5.893 2.989-12.178 2.851-10.965 3.296-15.538.921-9.461m-8.848.972c.048 1.165.285 1.402.604.605.289-.722.253-1.585-.079-1.917-.332-.332-.568.258-.525 1.312m162.116 4.917c.02 1.65.244 2.204.498 1.231.254-.973.237-2.323-.037-3-.274-.677-.481.119-.461 1.769m61.805-.779c-3.96.71-4.215 1.772-.444 1.854 2.23.049 3.444-.392 3.444-1.25 0-.729-.113-1.264-.25-1.189-.137.075-1.375.338-2.75.585m-14.99 2.171c-1.369.382-2.039.972-1.487 1.313.551.341 2.121 0 3.49-.757 2.67-1.478 1.989-1.667-2.003-.556m-123.484 3.358c.923 4.382 1.103 4.508 7.974 5.595 8.573 1.356 17.279-.266 18.749-3.492 1.776-3.899-.247-5.007-5.486-3.007-5.688 2.173-9.591 2.087-15.763-.346-2.791-1.1-5.318-2-5.616-2-.299 0-.235 1.463.142 3.25m-86.41-.082c-.064.918-.375 2.493-.692 3.5-.545 1.736-.515 1.739.568.051.628-.98.939-2.555.691-3.5-.406-1.549-.462-1.554-.567-.051M192.158 208c0 1.375.227 1.938.504 1.25.278-.687.278-1.812 0-2.5-.277-.687-.504-.125-.504 1.25M.392 227c0 7.425.157 10.463.35 6.75.192-3.713.192-9.787 0-13.5-.193-3.713-.35-.675-.35 6.75M31 221c-.591 1.105-.659 2-.152 2 .505 0 1.154-.9 1.442-2 .287-1.1.356-2 .152-2-.205 0-.853.9-1.442 2m110.1 2.018c-3.879 2.628-5.258 2.982-11.628 2.982-4.979 0-7.589.436-8.391 1.402-.639.771-2.279 1.682-3.644 2.024-3.36.844-2.201 2.848 5.511 9.529l6.014 5.21 4.482-3.673c2.466-2.02 7.061-7.039 10.213-11.154 4.618-6.029 5.45-7.658 4.286-8.394-1.979-1.253-1.897-1.278-6.843 2.074m78.265 1.474c1.576 1.436 2.701 2.734 2.5 2.886-.201.151-2.046 1.286-4.101 2.521l-3.737 2.247 2.442 3.594c1.344 1.977 2.242 3.918 1.998 4.314-.245.395-2.025 1.016-3.956 1.378-3.962.743-4.267 1.287-1.761 3.146 1.406 1.043.571 1.032-4.25-.057C197.778 242.1 186.505 240 184.227 240c-1.225 0-2.227-.525-2.227-1.167 0-.641-.276-.891-.613-.554-.53.531-3.254 11.883-3.352 13.971-.019.412 4.882.75 10.892.75 9.565 0 10.983-.218 11.384-1.75.435-1.667.463-1.667.573 0 .105 1.578 1.496 1.75 14.175 1.75 10.981 0 13.895-.274 13.308-1.25-.563-.938-.351-.926.851.048 1.058.857 3.925 1.196 8.442 1l6.84-.298-6-1.307c-8.919-1.942-10.979-2.974-12.156-6.093l-1.067-2.827 3.583.808c1.971.445 3.781.611 4.022.371.24-.241-.994-.724-2.743-1.074-2.878-.576-5.421-2.346-3.448-2.4.445-.012 1.893-.856 3.218-1.875l2.409-1.852-2.184-3.534c-1.629-2.636-1.86-3.664-.909-4.046.933-.375.888-.534-.166-.592-1.055-.058-.921-.473.5-1.547 1.772-1.34 1.64-1.384-1.523-.508-2.966.821-4.043.593-7.5-1.592l-4.036-2.55 2.865 2.61M37 225.053c-1.939 1.558-3.397 1.878-6.5 1.429-3.617-.523-3.816-.444-2.082.829 1.877 1.378 1.868 1.49-.437 5.219l-2.355 3.811 3.284 2.532 3.283 2.533-3.846 1.237-3.847 1.238 4-.402c2.2-.221 3.1-.141 2 .177-1.1.317-3.125 1.365-4.5 2.328-1.375.963-6.325 2.904-11 4.314l-8.5 2.563 26.108.069 26.108.07.892-4.169c.491-2.294 1.432-4.349 2.091-4.567.895-.296.959.443.25 2.913C60.261 253.064 60.162 253 71 253c5.5 0 9.981-.113 9.958-.25a616.39 616.39 0 00-1.311-5.682l-1.268-5.432-6.439.25c-6.098.237-23.119 3.123-27.44 4.652-1.654.586-1.594.405.352-1.043 1.743-1.298 2.023-1.954 1.081-2.536-1.167-.721.659-1.163 10.067-2.433 4.517-.61 13.136-2.492 14.077-3.074.508-.313.923-1.136.923-1.828 0-.918-2.902-.517-10.75 1.487-5.913 1.51-12.019 3.228-13.569 3.819-2.776 1.057-7.681.518-7.681-.844 0-.384 1.125-2.222 2.5-4.086 1.375-1.864 2.5-3.497 2.5-3.63s-1.8-1.254-4.001-2.491l-4.001-2.248 2.175-2.316c2.665-2.836 2.169-2.947-1.173-.262m204 .26c0 .172 1.463 1.635 3.25 3.25l3.25 2.937-2.937-3.25c-2.738-3.029-3.563-3.71-3.563-2.937M10.933 231.38c-1.412 1.215-4.331 4.215-6.486 6.665-3.758 4.273-3.673 4.233 2.068-.97 3.292-2.983 6.405-5.788 6.918-6.233.514-.445.739-1.003.5-1.24-.238-.238-1.588.563-3 1.778m20.255.58c-2.816 3.808-2.758 4.433.562 6.097a392.94 392.94 0 013.355 1.696c.332.174 1.814-1.269 3.292-3.207l2.688-3.524-3.293-2.007c-4.171-2.543-4.008-2.567-6.604.945m189.562-1.388c-3.314 1.798-3.392 2.64-.597 6.422 2.232 3.018 2.882 2.994 7.243-.264 1.846-1.379 1.834-1.499-.438-4.573-2.667-3.607-2.541-3.575-6.208-1.585m27.25.806c0 .207.787.995 1.75 1.75 1.586 1.243 1.621 1.208.378-.378-1.307-1.666-2.128-2.195-2.128-1.372m-61.771 2.589c1.502.467 3.379 1.498 4.172 2.291 1.505 1.506 16.326 4.349 17.347 3.328.322-.322-.327-.586-1.442-.586s-3.58-1.054-5.479-2.343c-2.44-1.656-5.486-2.518-10.39-2.941-4.406-.38-5.941-.288-4.208.251M219 242.385c0 .212 1.142 1.134 2.539 2.048 2.479 1.625 2.508 1.616 1.259-.385-1.076-1.723-3.798-2.915-3.798-1.663m-20.914 2.115c.104 1.894 1.77 5.084 1.828 3.5.031-.825-.381-2.175-.914-3-.533-.825-.945-1.05-.914-.5m-183.273 2.183c.721.289 1.584.253 1.916-.079.332-.332-.258-.568-1.312-.525-1.165.048-1.402.285-.604.604m227 0c.721.289 1.584.253 1.916-.079.332-.332-.258-.568-1.312-.525-1.165.048-1.402.285-.604.604" fill="#1976D2" fill-rule="evenodd"/><path fill-opacity=".396" d="M0 84.508C0 133.504.367 166 .921 166c.506 0 2.644-2.385 4.75-5.3s7.742-9.028 12.524-13.585c8.948-8.526 10.777-9.263 13.837-5.576.667.803 1.979 1.461 2.916 1.461 2.195 0 6.466 4.522 5.598 5.926-1.017 1.646 3.265 1.299 6.332-.513 2.821-1.666 4.669-5.775 6.115-13.596.476-2.576 1.347-5.584 1.936-6.685.589-1.1 1.087-3.268 1.106-4.816.02-1.549.679-3.941 1.465-5.316s1.441-3.4 1.456-4.5c.014-1.1 1.393-3.125 3.063-4.5 1.837-1.512 4.4-5.636 6.484-10.432 3.671-8.449 6.947-12.386 17.541-21.085 9.527-7.822 16.864-10.95 30.534-13.016 10.684-1.615 12.241-1.626 21.759-.154 15.357 2.376 25.347 7.696 39.504 21.038 7.349 6.925 14.064 27.25 14.219 43.038l.06 6.111 12.118 8.5c6.664 4.675 12.825 8.507 13.69 8.516.864.008 2.247-.795 3.072-1.787.825-.991 4.2-3.333 7.5-5.204l6-3.402 9.058 9.268c4.982 5.098 9.647 10.689 10.366 12.426.72 1.737 1.706 2.912 2.192 2.611.5-.309.884-35.795.884-81.737V2.5l-128.5.258L0 3.015v81.493m.477-.008c0 45.1.123 63.404.273 40.675.15-22.728.15-59.628 0-82C.6 20.804.477 39.4.477 84.5M157.928 7.163c-2.514 1.835-6.339 5.358-8.5 7.828-3.321 3.797-2.863 3.527 2.967-1.75L159.289 7h7.699c5.098 0 9.665.677 13.52 2.003 3.201 1.101 5.982 1.84 6.18 1.642.756-.756-14.48-5.714-19.217-6.253-4.5-.512-5.405-.249-9.543 2.771M76.5 7.439C71.303 9.135 63 12.798 63 13.394c0 .256 2.813-.687 6.25-2.096 9.548-3.915 25.525-3.979 23.123-.093-.389.631-.228.823.378.449.582-.36 2.944.921 5.249 2.846 5.121 4.278 6.886 4.646 2 .416C89.12 5.497 85.744 4.423 76.5 7.439M106.5 23c.995 1.1 2.035 2 2.31 2 .275 0-.315-.9-1.31-2-.995-1.1-2.035-2-2.31-2-.275 0 .315.9 1.31 2m34.888 1.531c-.913 1.392-1.477 2.713-1.255 2.936.223.222 1.163-.917 2.089-2.532 2.064-3.595 1.451-3.892-.834-.404M109 86.393c0 .216.675.652 1.5.969.825.316 1.5.139 1.5-.393 0-.533-.675-.969-1.5-.969s-1.5.177-1.5.393m-48 51.166c0 .857.45 1.281 1 .941.55-.34 1-1.041 1-1.559s-.45-.941-1-.941-1 .702-1 1.559m36.269-.866c.973.254 2.323.237 3-.037.677-.274-.119-.481-1.769-.461-1.65.02-2.204.244-1.231.498m-28.307 3.266c-1.904 1.628-3.012 2.964-2.462 2.969 1.195.01 3.483-1.769 5.372-4.178 2.007-2.558 1.017-2.147-2.91 1.209m20.779.47c-5.536 1.976-6.899 3.346-5.521 5.552.968 1.55 1.332 1.609 2.527.415.768-.768 2.235-1.396 3.262-1.396 1.567 0 1.776.55 1.308 3.436-.39 2.399.108 4.811 1.652 8 2.543 5.253 3.88 5.898 3.244 1.564-.393-2.68-.162-3 2.174-3 2.749 0 3.437-1.776 1.455-3.758-1.778-1.778.897-4.704 2.833-3.097.978.812 1.091 1.489.367 2.213-.573.573-1.042 1.852-1.042 2.842 0 1.314.773 1.8 2.861 1.8 2.555 0 2.818.295 2.451 2.75l-.412 2.75 1.663-2.904c1.137-1.987 1.508-4.277 1.173-7.25-.27-2.39-.135-4.346.298-4.346.434 0 .678-.754.543-1.677-.664-4.523-12.746-6.781-20.836-3.894m101.899 8.307c-.356 4.211-.308 7.954.106 8.317.415.363 4.561 1.177 9.213 1.809 6.687.908 8.717.885 9.689-.107.979-.999-.328-2.58-6.411-7.755-4.202-3.575-8.61-7.269-9.795-8.21l-2.155-1.71-.647 7.656m-10.871-4.78c-.691 2.461-.278 3.886.812 2.797.319-.32.423-1.632.229-2.917l-.351-2.336-.69 2.456m-119.928 2.332c-2.929 2.571-3.733 4.06-4.027 7.462l-.367 4.25h7.842l-.593-6.351c-.391-4.193-.203-6.742.555-7.5 2.37-2.37.112-.954-3.41 2.139m-36.917 1.462L21.5 150.5l3-2.5c1.65-1.375 3.188-2.613 3.417-2.75.229-.137-.03-.25-.576-.25-.546 0-2.083 1.238-3.417 2.75M73 147.5c0 .825.436 1.5.969 1.5.532 0 .709-.675.393-1.5-.317-.825-.753-1.5-.969-1.5-.216 0-.393.675-.393 1.5m19.494.509c-1.124 1.82.578 4.991 2.68 4.991 1.449 0 1.864-.458 1.433-1.582-.334-.87-.607-2.22-.607-3 0-1.623-2.57-1.923-3.506-.409m54.756 2.106c-5.449 3.49-4.293 4.856 3.552 4.198 4.862-.407 8.459-.088 12.608 1.118 3.193.928 6.094 1.397 6.447 1.043 1.204-1.207-4.874-5.402-10.055-6.94-6.758-2.007-8.647-1.919-12.552.581m-95.447 2.873c-2.779 2.044-3.412 3.003-2.55 3.865 1.637 1.637 4.43 1.417 5.129-.405.407-1.063.205-1.308-.643-.778-3.284 2.051-3.843.848-.802-1.723 4.469-3.777 3.645-4.474-1.134-.959m-23.136-.321c-.367.366-.667 1.131-.667 1.7 0 .626.466.567 1.183-.15.651-.651.951-1.416.667-1.7-.284-.285-.817-.217-1.183.15m46.892 8.457c-2.167.508-4.192 1.178-4.5 1.489-.806.814 7.155-.709 8.941-1.711 1.847-1.036.679-.977-4.441.222m107.441.83c.825.559 2.363 1.022 3.417 1.031 2.558.02 1.76-.552-1.917-1.375-2.191-.49-2.595-.397-1.5.344m-119.5 1.623c-3.3.776-7.013 1.648-8.25 1.936-1.261.294-2.253 1.286-2.256 2.256-.004.952-.634 2.933-1.4 4.403-.767 1.469-1.394 4.227-1.394 6.128 0 1.902-.534 4.456-1.188 5.677-.653 1.22-1.374 3.862-1.602 5.871-.228 2.009-1.046 5.452-1.818 7.652s-1.683 5.96-2.026 8.355c-.343 2.395-1.285 5.635-2.095 7.2-.809 1.565-1.471 4.042-1.471 5.504 0 2.398.269 2.591 2.75 1.975 1.513-.375 6.874-2.305 11.913-4.288l9.164-3.606.677-4.513c.372-2.482.647-13.426.611-24.32L65.05 164h2.475c1.361 0 2.475-.45 2.475-1s-.112-.963-.25-.917c-.138.046-2.95.719-6.25 1.494m127.885 16.151c.365 9.225.93 20.073 1.257 24.108l.593 7.336 4.633 1.986c11.698 5.016 24.896 8.931 32.058 9.51l7.574.612-2.133-2.39c-7.132-7.991-9.05-24.866-3.948-34.733l1.548-2.994-4.733-2.152c-6.36-2.892-6.298-2.851-12.429-8.198-4.547-3.966-6.677-5.015-13.839-6.813-4.656-1.169-9.091-2.332-9.855-2.585-1.166-.385-1.282 2.237-.726 16.313M46.403 167.202c-3.275 2.515-4.372 3.845-4.372 5.298 0 .55.375.408.834-.316.46-.725 1.69-1.442 2.735-1.596 1.045-.153 1.9-.815 1.9-1.47s.662-1.6 1.471-2.1 1.215-1.165.903-1.478c-.313-.312-1.875.435-3.471 1.662m4.161.505c-.542 1.425-.428 1.54.56.56.684-.679.991-1.486.683-1.793-.308-.308-.867.247-1.243 1.233m-14 4c-.542 1.425-.428 1.54.56.56.684-.679.991-1.486.683-1.793-.308-.308-.867.247-1.243 1.233m1.936 5.296c-1.65.831-4.628 2.52-6.618 3.754-1.99 1.234-4.69 2.272-6 2.306-2.292.061-2.303.096-.287.911 2.988 1.208 4.791 8.494 4.156 16.789-.523 6.829-4.554 17.152-8.324 21.318-1.69 1.867-1.604 1.919 3.217 1.919 4.703 0 5.015-.168 6.155-3.321.661-1.827 1.201-4.431 1.201-5.789 0-1.357.9-4.232 2-6.39 1.1-2.158 2.016-5.515 2.035-7.461.02-1.947.679-4.664 1.465-6.039s1.455-3.85 1.487-5.5c.031-1.65.878-4.807 1.881-7.015 1.003-2.208 1.555-4.684 1.228-5.503-.527-1.317-.944-1.314-3.596.021m41.311 2.263c1.62 1.96 2.245 27.5.689 28.155-.55.232.912.524 3.25.65s4.813.274 5.5.329c1.563.125 4.814 4.687 4.13 5.795-.279.45.226 1.1 1.122 1.444 1.267.486 1.491 1.441 1.01 4.29-.477 2.826-.149 4.263 1.434 6.276 1.13 1.436 2.054 3.125 2.054 3.754s1.625 1.822 3.611 2.652c3.452 1.442 3.78 1.396 7.478-1.051 2.128-1.408 4.692-2.56 5.698-2.56 1.007 0 2.704-.661 3.772-1.468 1.141-.864 4.207-1.484 7.441-1.506 7.065-.048 12.308-1.527 15.673-4.421 2.562-2.204 2.67-2.693 2.537-11.44-.137-8.972-.09-9.165 2.575-10.612 2.848-1.545 2.091-1.951-1.219-.655-1.215.476-2.33 2.397-3 5.172-1.289 5.336-4.034 6.96-12.968 7.669-8.408.667-14.179-1.027-16.091-4.726-.829-1.603-1.507-3.653-1.507-4.557 0-.904-.957-1.893-2.126-2.199-1.169-.306-4.176-1.594-6.682-2.863l-4.557-2.307 2.433 2.328c1.337 1.28 2.722 2.163 3.077 1.962.355-.201.907.317 1.228 1.152.479 1.249.221 1.324-1.46.424-1.124-.601-2.993-1.276-4.154-1.499-2.244-.433-3.719-2.111-3.744-4.263-.009-.775.495-1.009 1.235-.573.688.405-.687-1.167-3.055-3.494-2.368-2.326-5.562-6.21-7.097-8.63-2.142-3.379-3.065-4.127-3.969-3.223-.905.905-1.696.857-3.404-.207-2.002-1.246-2.093-1.226-.914.202m161.328 1.767c-1.298 1.082-1.93 1.967-1.405 1.967.526 0 1.771-.9 2.766-2 2.287-2.527 1.695-2.513-1.361.033m-195.575 2.674c-.542 1.425-.428 1.54.56.56.684-.679.991-1.486.683-1.793-.308-.308-.867.247-1.243 1.233m41.098 2.478c-.76 2.907.006 3.576 1.912 1.67 1.318-1.319 1.332-1.688.098-2.712-1.153-.957-1.54-.757-2.01 1.042m39.588-.496c.963.252 2.537.252 3.5 0 .963-.251.175-.457-1.75-.457s-2.713.206-1.75.457m-7.171 1.439c-.043.895.708 2.245 1.671 3 1.521 1.192 1.604 1.175.634-.128-.613-.825-1.365-2.175-1.671-3-.464-1.255-.568-1.234-.634.128m-29.995 2.271c-1.7 2.048-.758 9.025 1.271 9.424.905.178 1.645-.159 1.645-.75 0-.59-.495-1.073-1.101-1.073-.691 0-.967-1.675-.742-4.5.196-2.475.297-4.5.223-4.5-.074 0-.657.629-1.296 1.399m45.055.634c-1.298 1.082-1.93 1.967-1.405 1.967.526 0 1.771-.9 2.766-2 2.287-2.527 1.695-2.513-1.361.033m27.266.217l-1.905 2.25 2.25-1.905c2.114-1.79 2.705-2.595 1.905-2.595-.19 0-1.202 1.012-2.25 2.25m-34.136 2.443c.973.254 2.323.237 3-.037.677-.274-.119-.481-1.769-.461-1.65.02-2.204.244-1.231.498M15.5 202c2.099 2.32 5.047 2.623 5.824.599.545-1.422-1.974-2.558-5.729-2.585-1.842-.014-1.845.052-.095 1.986m75.579 3.583c.048 1.165.285 1.402.604.605.289-.722.253-1.585-.079-1.917-.332-.332-.568.258-.525 1.312m-52.62 5.484c-.363.586-.445 1.281-.183 1.543s.743-.218 1.069-1.067c.676-1.762.1-2.072-.886-.476M150 220c-.825.533-1.05.969-.5.969s1.675-.436 2.5-.969c.825-.533 1.05-.969.5-.969s-1.675.436-2.5.969m-42.101 18.5c1.686 3.262 3.071 5.07 3.063 4-.003-.55-.927-2.125-2.051-3.5-1.359-1.661-1.698-1.828-1.012-.5m38.789 4.178c-2.056 3.123-2.916 4.934-1.911 4.024 1.72-1.557 6.758-9.702 6.001-9.702-.193 0-2.033 2.555-4.09 5.678m105.312-5.3c0 .207.787.995 1.75 1.75 1.586 1.243 1.621 1.208.378-.378-1.307-1.666-2.128-2.195-2.128-1.372m-130.14 2.316c1.275 2.431 3.14 3.928 3.14 2.52 0-.497-.965-1.761-2.146-2.809-2.13-1.892-2.137-1.89-.994.289M39.5 243c.34.55 1.518 1 2.618 1 1.334 0 1.75.416 1.249 1.25-.459.764-.055.685 1.038-.203 1.715-1.393 1.713-1.483-.058-2.18-2.753-1.083-5.551-1.007-4.847.133m37.563 1.125c-.034 1.444-.344 4.031-.688 5.75-.543 2.716-.347 3.125 1.5 3.125 1.258 0 2.125-.636 2.125-1.559 0-.857-.385-1.321-.856-1.03-.47.291-.666-.47-.435-1.691.231-1.221-.03-3.345-.581-4.72l-1.001-2.5-.064 2.625M212.5 243c-.731 1.183.248 1.183 3 0 1.928-.829 1.921-.862-.191-.93-1.205-.038-2.469.38-2.809.93m-180 1c-.34.55-1.604 1.052-2.809 1.116-1.71.091-1.804.217-.429.576.969.253 1.505.875 1.191 1.384-.314.508.115.924.953.924 1.326 0 3.594-2.798 3.594-4.434 0-.95-1.842-.63-2.5.434m166.515-.75c.009.137.62 2.275 1.359 4.75l1.344 4.5 13.218.28c7.798.164 12.987-.095 12.654-.634-1.69-2.734-28.711-11.147-28.575-8.896M50 245.557c-3.025.763-6.783 1.639-8.351 1.947-1.568.308-4.943 1.65-7.5 2.981l-4.649 2.422 14.191.046c7.805.026 14.383-.291 14.619-.703.235-.412.732-2.437 1.104-4.5.623-3.455.496-3.743-1.619-3.665-1.262.047-4.77.709-7.795 1.472" fill="#1976D2" fill-rule="evenodd"/><path fill-opacity=".469" d="M.053 84.758L.105 166.5l3.17-4c6.062-7.65 22.757-23.5 24.754-23.5 1.084 0 2.871.9 3.971 2s2.83 2 3.845 2c1.954 0 5.155 2.932 5.155 4.722 0 1.888 3.039 2.298 5.43.732 2.392-1.568 4.939-7.292 5.986-13.454.327-1.925 1.267-4.789 2.089-6.364.822-1.576 1.495-3.92 1.495-5.211 0-4.519 3.431-13.722 5.299-14.212 1.101-.289 3.697-4.439 6.7-10.711 5.035-10.518 6.329-12.013 19.947-23.063C100.958 64.88 121.364 60.718 142 64.413c10.293 1.843 18.9 6.18 29.355 14.792 7.77 6.401 9.352 8.276 12.912 15.295 4.331 8.54 7.557 21.168 7.793 30.5.077 3.025.432 6.483.79 7.683.661 2.221 22.457 18.317 24.802 18.317.685 0 2.346-1.012 3.692-2.25s4.962-3.6 8.036-5.25l5.589-3 8.95 9.5c4.922 5.225 9.483 10.738 10.136 12.25.653 1.513 1.583 2.75 2.066 2.75.498 0 .879-35.229.879-81.25V2.5l-128.5.258L0 3.015l.053 81.743m.424-.258c0 45.1.123 63.404.273 40.675.15-22.728.15-59.628 0-82C.6 20.804.477 39.4.477 84.5M156.275 7.877C149.37 13.335 142.339 21.552 139.058 28c-3.815 7.496-6.67 19.936-5.474 23.851l.916 2.996 4-1.463c2.744-1.004 6.042-1.288 10.5-.906 6.133.527 6.827.36 12.3-2.96 3.19-1.935 6.179-3.518 6.641-3.518.463 0 2.943-1.737 5.512-3.86 4.214-3.482 5.178-3.841 9.859-3.668 3.719.138 5.863-.327 7.573-1.64 2.912-2.237 6.247-2.332 10.194-.291 1.639.847 3.417 1.271 3.95.941.534-.33.978-.011.986.709.012 1.003.225.978.911-.105.492-.778.646-3.028.342-5-1.294-8.391-8.152-17.408-16.481-21.67C183.418 7.645 171.217 4 165.962 4c-4.044 0-5.54.598-9.687 3.877M78 6.438c-23.035 6.448-34.162 17.528-34.347 34.203-.051 4.538.4 7.718 1.236 8.725 3.064 3.692 19.054 14.534 24.263 16.452 3.109 1.144 9.184 2.313 13.5 2.597l7.848.516-8.383-1.388c-4.61-.764-11.135-2.624-14.5-4.134-7.954-3.569-15.823-9.431-15.119-11.264.295-.769.001-2.043-.652-2.831-.654-.788 2.15.388 6.232 2.613 4.082 2.224 7.872 4.039 8.422 4.033.55-.007-2.259-1.742-6.241-3.857-3.983-2.114-7.901-4.391-8.706-5.059-.806-.669-1.946-.919-2.534-.556-.588.363-.945.121-.794-.539.151-.659-.35-1.426-1.114-1.704-.956-.347-1.14-.074-.59.875.44.759.416 1.031-.053.604-.469-.426-1.001-1.749-1.183-2.939-.182-1.19-.019-1.852.361-1.472.381.38 1.403.079 2.273-.669.869-.749 3.089-1.867 4.932-2.486 2.93-.983 3.871-.82 7.5 1.298 2.91 1.699 4.629 2.15 5.757 1.513 2.687-1.519 7.715-.277 11.719 2.894 2.086 1.652 7.308 4.791 11.604 6.976 6.221 3.164 8.347 3.805 10.44 3.149 1.446-.452 5.163-1.083 8.261-1.4 4.469-.458 5.909-.243 6.977 1.043 1.209 1.457 1.457 1.345 2.461-1.11 1.379-3.374-1.857-16.269-6.028-24.021-3.113-5.786-13.053-16.282-19.463-20.554C87.29 4.756 84.919 4.502 78 6.438m28 27.861c0 1.244 3.147 5.903 6.779 10.036 1.853 2.109 3.131 4.458 2.839 5.218-.292.761-.1 1.649.426 1.974 1.934 1.195.887-4.279-1.171-6.122-1.17-1.048-3.645-4.149-5.5-6.892-1.855-2.742-3.373-4.639-3.373-4.214m97.712 9.734C201.67 46.2 200 48.548 200 49.25c0 1.689-9.214 8.819-15.5 11.996-4.4 2.223-14.973 4.895-24 6.065-2.718.353-2.656.403.662.539 5.656.232 17.743-2.421 23.838-5.231 7.4-3.412 21.125-15.229 22.148-19.069.432-1.622.671-3.064.531-3.204-.14-.14-1.925 1.519-3.967 3.687M119 55.906c0 2.422.336 2.819 2.016 2.38 1.108-.29 2.26-.923 2.559-1.407.298-.483 2.036-.879 3.862-.879 1.825 0 3.878-.675 4.563-1.5 1.087-1.309.34-1.5-5.878-1.5H119v2.906M91.75 68.662c.688.278 1.813.278 2.5 0 .688-.277.125-.504-1.25-.504s-1.937.227-1.25.504m-2.25 72.551c-4.166 1.466-5.478 2.68-4.801 4.444.318.831.854 1.092 1.19.581.336-.512 1.848-1.233 3.361-1.603 2.387-.584 2.752-.374 2.765 1.596.013 1.85.201 1.992 1.021.769.864-1.29 1.257-1.2 2.805.64 2.029 2.411 5.111 1.561 5.222-1.44.049-1.292.272-1.183.933.456.509 1.261 2.143 2.435 3.937 2.829 2.228.49 3.067 1.245 3.067 2.761 0 1.148.256 1.831.569 1.518.314-.313.038-3.274-.613-6.58-.934-4.752-1.629-6.13-3.319-6.583-3.374-.906-12.844-.546-16.137.612m102.5 8.101c0 8.661-.518 8.21 10.619 9.252 4.346.407 7.356.283 7.728-.319.581-.94-6.587-7.652-14.597-13.668l-3.75-2.816v7.551m-131.645-1.68c-1.287 1.119-2.401 3.619-2.783 6.248l-.638 4.381 3.21-.642c1.766-.353 3.32-.751 3.454-.885.134-.134-.058-2.657-.427-5.606l-.671-5.362-2.145 1.866m86.759 3.188c-2.989 2.37-1.556 3.425 3.575 2.632 2.142-.331 6.657.091 10.311.964 7.663 1.83 8 1.859 8 .671 0-1.679-8.98-5.28-14.268-5.722-4.084-.341-5.756-.022-7.618 1.455m-55.079 2.228c.02.797.699 2.575 1.509 3.95l1.472 2.5-.637-3c-.703-3.31-2.401-5.81-2.344-3.45m99.708 14.638c-.521 4.05.813 31.86 1.877 39.152.585 4.001.995 4.496 5.257 6.342C212.934 219.27 236 224.876 236 222.205c0-.492-.884-1.695-1.964-2.672-1.08-.978-2.768-3.86-3.75-6.405-2.41-6.244-2.334-21.201.131-25.968 1.646-3.182 1.641-3.398-.096-4.7-1.002-.751-3.062-1.648-4.579-1.994-1.517-.346-5.185-2.846-8.151-5.556-5.25-4.799-9.826-7.046-18.171-8.924-2.244-.505-4.779-1.186-5.633-1.514-1.195-.459-1.667.284-2.044 3.216m-135.066-1.985c-2.019.522-5.677 8.136-5.677 11.815 0 1.293-.456 3.552-1.014 5.019-.558 1.466-1.641 5.433-2.407 8.815-3.882 17.137-4.522 19.68-5.375 21.346-.507.991-1.19 3.217-1.517 4.946-.709 3.747-.933 3.774 13.303-1.578l9.51-3.576.633-6.495c.852-8.735.996-32.583.225-37.245-.539-3.263-.96-3.735-3.239-3.634-1.44.064-3.439.328-4.442.587m-21.551 13.801c-3.506 1.876-6.574 3.611-6.818 3.855-.244.244.265 2.83 1.131 5.747 2.273 7.655 1.186 16.577-3.055 25.07-1.834 3.671-3.795 6.96-4.359 7.309-.564.348-1.025 1.056-1.025 1.574 0 1.105 6.034 1.246 7.52.176 1.588-1.143 3.479-6.044 3.486-9.032.004-1.487.679-3.992 1.5-5.567.822-1.576 1.504-4.276 1.516-6 .012-1.725.912-5.098 2-7.495 1.088-2.398 1.978-5.426 1.978-6.73 0-1.304.718-4.164 1.595-6.356.877-2.193 1.439-4.431 1.25-4.975-.19-.543-3.213.547-6.719 2.424M96.66 200.75c-.251.412-.974 2.676-1.605 5.03-.721 2.687-1.561 4.025-2.256 3.596-.67-.414-.826-.228-.394.469.392.635 1.474 1.162 2.404 1.17 1.354.013 1.416.19.309.891-1.086.688-.925 1.02.75 1.552 1.173.372 2.132 1.273 2.132 2.002 0 2.023 2.831 2.665 3.835.87.539-.963 1.137-1.185 1.521-.563.348.563-.091 1.301-.974 1.64-1.301.499-1.372.9-.372 2.105 1.676 2.02.091 1.889-2.197-.181-1.728-1.564-1.934-1.549-3.262.25-1.224 1.658-1.222 1.963.016 2.242 1.261.285 1.912 2.142 1.551 4.427-.065.412.38.75.989.75s.853-.661.544-1.468c-.31-.807-.108-1.75.449-2.094.647-.4.843.852.542 3.468-.468 4.073.348 4.938 3.858 4.089.55-.133 2.273-.407 3.829-.608 3.402-.44 4.875-1.248 4.218-2.312-.268-.432.57-.584 1.861-.337 1.649.315 2.831-.241 3.97-1.867 1.926-2.75 2.126-5.206.376-4.622-.685.228-1.247 1.271-1.25 2.317-.002 1.147-.797 2.004-2.004 2.159-1.47.19-1.603.062-.5-.483.825-.408 1.545-1.304 1.6-1.992.26-3.247.507-3.479 3.15-2.952 1.6.318 3.546-.036 4.653-.848 1.963-1.438 2.005-1.39-2.403-2.757-1.077-.334-.795-.752 1-1.484l2.5-1.019-3.718-1.595c-2.045-.877-4.449-1.595-5.344-1.595-.894 0-1.835-.8-2.09-1.779-.372-1.421-1.357-1.726-4.907-1.519-2.442.143-4.441-.147-4.441-.644 0-.498-1.165-2.289-2.589-3.981-2.495-2.965-4.794-3.895-5.751-2.327m1.59 2.5c.138.688-.263 1.154-.89 1.037-.628-.118-1.357.916-1.621 2.298-.369 1.928-.104 2.434 1.14 2.177.927-.191 1.488-1.101 1.309-2.126-.195-1.124.453-1.991 1.739-2.327 1.128-.295 1.804-.935 1.503-1.423-.838-1.354-3.464-1.054-3.18.364M102 206c0 .55.477 1 1.059 1s.781-.45.441-1-.816-1-1.059-1-.441.45-.441 1m41.079 1.583c.048 1.165.285 1.402.604.605.289-.722.253-1.585-.079-1.917-.332-.332-.568.258-.525 1.312m-42.69 3.987c.336.877.611 1.782.611 2.012 0 .23.45.418 1 .418 1.629 0 1.138-2.733-.611-3.404-1.18-.453-1.448-.192-1 .974m37.774-.429c-2.127.613-3.154 1.441-2.831 2.282.279.727.812 3.352 1.184 5.835l.677 4.514-4.347.433c-2.39.238-5.809.112-7.596-.281-3.715-.815-4.504.544-.848 1.462 3.182.799 11.422-.327 14.785-2.019 2.969-1.495 4.869-3.709 2.354-2.744-1.039.398-1.404.143-1.087-.762.467-1.332 1.534-9.949 1.21-9.771-.09.05-1.666.523-3.501 1.051m-24.051 3.563c-1.184 1.286-1.184 1.635 0 2.375.932.583 1.496.378 1.715-.624.551-2.515-.254-3.337-1.715-1.751M94.5 215c.34.55 1.068 1 1.618 1s.722-.45.382-1c-.34-.55-1.068-1-1.618-1s-.722.45-.382 1m9.757 4.759c.073.968 1.12 2.735 2.327 3.927l2.195 2.167.599-2.993c.338-1.691 1.046-2.716 1.627-2.357.565.349.8 1.003.523 1.452-.278.45.389 1.052 1.483 1.338 3.22.842 2.556-3.127-.731-4.377-2.222-.844-2.955-.713-4 .716-1.179 1.612-1.28 1.617-1.28.059 0-.93-.647-1.691-1.438-1.691-.791 0-1.378.792-1.305 1.759m-6.266 1.73c.68.819 1.638 1.24 2.129.937.492-.304 1.164.151 1.494 1.011.33.859.988 1.563 1.462 1.563 1.679 0-.223-2.746-2.678-3.865-3.323-1.514-3.888-1.431-2.407.354M105.5 227c-.34.55.11 1 1 1s1.34-.45 1-1c-.34-.55-.79-1-1-1-.21 0-.66.45-1 1m94.506 17.339c.003.638.474 2.849 1.047 4.911l1.041 3.75h13.176c11.697 0 12.946-.16 11.138-1.427-4.727-3.311-26.412-9.253-26.402-7.234m-148.613 1.202c-6.635 1.457-16.031 4.573-19.018 6.309-1.42.825 1.435 1.097 11.767 1.12l13.641.03.656-2.75c.361-1.512.89-3.537 1.176-4.5.604-2.035.149-2.046-8.222-.209" fill="#1976D2" fill-rule="evenodd"/></svg>